<svg width="17" height="11" viewBox="0 0 17 11" fill="none" xmlns="http://www.w3.org/2000/svg">
<path fill-rule="evenodd" clip-rule="evenodd" d="M16.6852 1.52775C16.6852 1.02149 16.2624 0.611084 15.7407 0.611084H14.7963C14.2747 0.611084 13.8519 1.02149 13.8519 1.52775V9.4722C13.8519 9.97846 14.2747 10.3889 14.7963 10.3889H15.7407C16.2624 10.3889 16.6852 9.97846 16.6852 9.4722V1.52775ZM10.3889 2.75H11.3333C11.8549 2.75 12.2778 3.16041 12.2778 3.66667V9.47222C12.2778 9.97848 11.8549 10.3889 11.3333 10.3889H10.3889C9.86726 10.3889 9.44442 9.97848 9.44442 9.47222V3.66667C9.44442 3.16041 9.86726 2.75 10.3889 2.75ZM6.92597 4.88883H5.98153C5.45992 4.88883 5.03708 5.29924 5.03708 5.8055V9.47217C5.03708 9.97843 5.45992 10.3888 5.98153 10.3888H6.92597C7.44757 10.3888 7.87042 9.97843 7.87042 9.47217V5.8055C7.87042 5.29924 7.44757 4.88883 6.92597 4.88883ZM3.46297 7.63883C3.46297 7.13257 3.04013 6.72217 2.51853 6.72217H1.57408C1.05248 6.72217 0.629639 7.13257 0.629639 7.63883V9.47217C0.629639 9.97843 1.05248 10.3888 1.57408 10.3888H2.51853C3.04013 10.3888 3.46297 9.97843 3.46297 9.47217V7.63883Z" fill="#000014"/>
</svg>
