<svg width="60" height="25" viewBox="0 0 60 25" fill="none" xmlns="http://www.w3.org/2000/svg">
<path d="M33.6225 6.5387C33.2424 6.53856 32.8574 6.5751 32.5315 6.6467C31.5837 6.85487 30.7662 7.34059 30.2736 7.98826C30.1604 8.1372 30.0492 8.25885 30.0261 8.25885C30.0031 8.25885 29.8954 8.13784 29.7875 7.99054C29.1213 7.08163 27.8562 6.5358 26.4298 6.54211C25.6734 6.54545 25.1569 6.65665 24.4675 6.9639C23.5683 7.36466 22.8999 7.9795 22.4521 8.81821C22.137 9.40827 22.0284 9.78401 21.9861 10.4247C21.9143 11.5136 22.2673 12.6555 23.009 13.8059H25.1632C25.2015 13.8059 25.2388 13.8164 25.2703 13.8359C25.3019 13.8553 25.3261 13.8829 25.34 13.915L25.4979 14.2799L25.6267 13.9446C25.6397 13.9111 25.6639 13.882 25.696 13.8614C25.7281 13.8409 25.7666 13.8298 25.806 13.8297H26.349L26.8819 12.038C26.8927 12.0016 26.9166 11.9694 26.9498 11.9465C26.9831 11.9236 27.0237 11.9112 27.0656 11.9112C27.1074 11.9112 27.1481 11.9236 27.1813 11.9465C27.2145 11.9694 27.2384 12.0016 27.2493 12.038L27.7582 13.7467H28.2974C28.3431 13.7468 28.3873 13.7616 28.4218 13.7885C28.4564 13.8155 28.479 13.8527 28.4856 13.8934L28.5411 14.2345L29.0235 8.10536C29.0268 8.06278 29.0477 8.02285 29.0821 7.99341C29.1164 7.96397 29.1617 7.94713 29.2091 7.9462C29.2572 7.94535 29.3039 7.96095 29.3398 7.98985C29.3756 8.01875 29.398 8.05881 29.4023 8.10195L30.2332 16.4617L30.6184 13.9855C30.6247 13.9446 30.6472 13.9071 30.6817 13.8799C30.7163 13.8528 30.7606 13.8378 30.8065 13.8377H32.1476L33.178 12.229C33.1947 12.2029 33.2187 12.1813 33.2476 12.1662C33.2766 12.1512 33.3094 12.1433 33.3428 12.1433C33.3762 12.1433 33.409 12.1512 33.4379 12.1662C33.4668 12.1813 33.4909 12.2029 33.5076 12.229L34.5051 13.7843H37.061C37.5093 13.086 37.8234 12.3859 37.9942 11.6912C38.1032 11.2477 38.0875 10.0678 37.9676 9.64588C37.835 9.17903 37.4057 8.39239 37.0913 8.0417C36.5088 7.39192 35.5944 6.86221 34.6819 6.6467C34.3778 6.57488 34.0025 6.53883 33.6225 6.5387ZM29.2344 10.2587L28.7949 15.8398C28.7911 15.8815 28.7704 15.9206 28.7367 15.9495C28.7031 15.9785 28.6588 15.9953 28.6123 15.9968C28.5658 15.9984 28.5203 15.9845 28.4844 15.9579C28.4484 15.9312 28.4246 15.8937 28.4174 15.8523L28.1333 14.0901H27.613C27.571 14.0902 27.5301 14.0777 27.4967 14.0547C27.4634 14.0317 27.4394 13.9993 27.4286 13.9627L27.0662 12.744L26.6785 14.0457C26.6675 14.0821 26.6435 14.1142 26.6101 14.137C26.5768 14.1598 26.5361 14.1721 26.4942 14.1719H25.9424L25.6873 14.8325C25.6745 14.8657 25.6508 14.8945 25.6192 14.9152C25.5876 14.9358 25.5498 14.9472 25.5108 14.9478C25.4718 14.9484 25.4335 14.9383 25.4012 14.9186C25.3688 14.899 25.344 14.8709 25.3299 14.8382L25.0319 14.1481H23.2426C24.4679 15.8722 26.555 17.6073 29.3821 19.2062C29.7194 19.3969 30.0109 19.553 30.0312 19.553C30.0938 19.553 31.2605 18.8806 31.943 18.4513C34.134 17.0731 35.7842 15.6073 36.8299 14.1265H34.3953C34.362 14.1264 34.3294 14.1185 34.3006 14.1035C34.2718 14.0886 34.2478 14.0671 34.2311 14.0412L33.3434 12.6576L32.4216 14.0946C32.4049 14.1209 32.3809 14.1427 32.3518 14.1579C32.3228 14.1731 32.2898 14.1811 32.2562 14.181H30.9732L30.3797 17.9908C30.3729 18.0322 30.3496 18.0699 30.3141 18.0968C30.2786 18.1238 30.2334 18.1381 30.187 18.1371C30.1406 18.1362 30.0962 18.1199 30.0621 18.0915C30.0281 18.0631 30.0067 18.0245 30.0021 17.9829L29.2344 10.2587ZM36.9978 13.8798C36.9713 13.92 36.9445 13.9601 36.917 14.0003C36.9445 13.9601 36.9713 13.9199 36.9978 13.8798ZM36.917 14.0003C36.8885 14.0419 36.8606 14.0836 36.8312 14.1253C36.8605 14.0838 36.8887 14.0418 36.917 14.0003ZM23.1226 13.9764C23.1583 14.0291 23.1952 14.0817 23.2325 14.1344C23.1952 14.0819 23.1585 14.0288 23.1226 13.9764Z" fill="#00015F"/>
<path d="M30.8797 1.39982C28.8677 1.39792 28.3248 1.46414 26.4577 1.94029C23.71 2.64104 20.9857 3.8926 16.2749 6.61801C15.1107 7.29154 13.701 8.06445 13.1422 8.33563C9.50378 10.1014 5.50761 11.0785 1.71193 11.1308L1.03497 11.1408L1.83906 11.2894C2.28144 11.371 3.08172 11.4875 3.61724 11.5481V11.5486C4.15275 11.6092 5.2002 11.6607 5.94527 11.6645L7.30022 11.6694C8.48084 11.6165 13.8832 11.1429 18.9026 7.95295C23.3267 5.70818 26.7552 4.45383 29.6523 4.02055C30.1006 3.95353 30.8659 3.92184 31.6801 3.91958C39.8959 6.92997 40.0149 6.04606 37.3811 4.68028C39.3174 5.22548 41.2899 6.02216 43.02 6.97778C43.3872 7.18061 43.7028 7.33206 43.7218 7.31439C43.7782 7.26189 41.6694 5.48279 40.8362 4.87984C38.4475 3.15144 36.1075 2.08712 33.5772 1.57832C32.8245 1.42695 32.4423 1.40226 30.8797 1.4004V1.39982Z" fill="#000149"/>
<path d="M15.151 6.6307C10.2374 8.59332 5.89092 10.4324 1.21763 9.85875C1.15809 8.39761 1.09855 6.93648 1.039 5.47534C5.98248 7.48805 8.91885 6.54146 15.151 6.6307Z" fill="#444469"/>
<path d="M17.9794 5.06709C16.1797 6.27849 13.2143 6.28071 9.99496 6.27224C6.7756 6.26374 4.31019 6.24459 1.0222 4.79891C0.962661 3.33778 0.903111 2.03414 0.843567 0.572998C5.78704 2.58571 11.7472 4.97785 17.9794 5.06709Z" fill="#60607B"/>
<path d="M29.1648 23.4269C31.1768 23.4289 31.7197 23.3626 33.5868 22.8864C36.3345 22.1857 39.0588 20.9341 43.7696 18.2087C44.9338 17.5351 46.3434 16.7622 46.9022 16.4911C50.5407 14.7253 54.5369 13.7482 58.3325 13.6959L59.0095 13.6859L58.2054 13.5373C57.763 13.4557 56.9627 13.3392 56.4272 13.2786V13.2781C55.8917 13.2175 54.8443 13.1659 54.0992 13.1622L52.7443 13.1572C51.5636 13.2101 46.1612 13.6838 41.1419 16.8737C36.7178 19.1185 33.2892 20.3729 30.3921 20.8061C29.9439 20.8731 29.1785 20.9048 28.3643 20.9071C20.1486 17.8967 20.0296 18.7806 22.6634 20.1464C20.7271 19.6012 18.7545 18.8045 17.0245 17.8489C16.6573 17.6461 16.3417 17.4946 16.3227 17.5123C16.2663 17.5648 18.375 19.3439 19.2083 19.9468C21.597 21.6753 23.937 22.7396 26.4673 23.2484C27.22 23.3997 27.6022 23.4244 29.1648 23.4263V23.4269Z" fill="#000149"/>
<path d="M44.8934 18.1961C49.8071 16.2334 54.1535 14.3944 58.8268 14.968C58.8863 16.4291 58.9459 17.8903 59.0055 19.3514C54.062 17.3387 51.1256 18.2853 44.8934 18.1961Z" fill="#444469"/>
<path d="M42.0651 19.7597C43.8648 18.5483 46.8302 18.546 50.0495 18.5545C53.2689 18.5625 55.7343 18.5821 59.0223 20.0278C59.0818 21.489 59.1414 22.7926 59.2009 24.2537C54.2574 22.241 48.2973 19.8489 42.0651 19.7597Z" fill="#60607B"/>
</svg>
