<svg width="20" height="21" viewBox="0 0 20 21" fill="none" xmlns="http://www.w3.org/2000/svg">
<g clip-path="url(#clip0)">
<path d="M0.315315 0.5H8.46847C8.64267 0.5 8.78378 0.641118 8.78378 0.815315V8.96847C8.78378 9.14267 8.64267 9.28378 8.46847 9.28378H0.315315C0.141118 9.28378 0 9.14267 0 8.96847V0.815315C0 0.641118 0.141118 0.5 0.315315 0.5Z" fill="#FAFAFA"/>
<path d="M11.5315 0.5H19.6847C19.8589 0.5 20 0.641118 20 0.815315V8.96847C20 9.14267 19.8589 9.28378 19.6847 9.28378H11.5315C11.3573 9.28378 11.2162 9.14267 11.2162 8.96847V0.815315C11.2162 0.641118 11.3573 0.5 11.5315 0.5Z" fill="#FAFAFA"/>
<path d="M0.315315 11.7162H8.46847C8.64267 11.7162 8.78378 11.8573 8.78378 12.0315V20.1847C8.78378 20.3589 8.64267 20.5 8.46847 20.5H0.315315C0.141118 20.5 0 20.3589 0 20.1847V12.0315C0 11.8573 0.141118 11.7162 0.315315 11.7162Z" fill="#FAFAFA"/>
<path d="M11.5315 11.7162H19.6847C19.8589 11.7162 20 11.8573 20 12.0315V20.1847C20 20.3589 19.8589 20.5 19.6847 20.5H11.5315C11.3573 20.5 11.2162 20.3589 11.2162 20.1847V12.0315C11.2162 11.8573 11.3573 11.7162 11.5315 11.7162Z" fill="#FAFAFA"/>
</g>
<defs>
<clipPath id="clip0">
<rect width="20" height="20" fill="white" transform="translate(0 0.5)"/>
</clipPath>
</defs>
</svg>
