<svg id="Layer_1" data-name="Layer 1" xmlns="http://www.w3.org/2000/svg" viewBox="0 0 354.11 535"><defs><style>.cls-1{fill:#ebebef;}.cls-2{fill:#fff;}.cls-3{fill:none;stroke:#ebebef;}.cls-4{fill:#000014;}</style></defs><rect class="cls-1" x="212.46" width="132.58" height="202.68"/><rect class="cls-1" y="100.45" width="291.68" height="434.55"/><rect class="cls-2" x="13.39" y="111.61" width="264.9" height="409.99"/><rect class="cls-2" x="223.99" y="11.68" width="108.7" height="179.33"/><rect class="cls-1" x="282.46" y="311.94" width="71.64" height="82.57"/><line class="cls-3" x1="279.67" y1="323.62" x2="279.67" y2="384.51"/><line class="cls-3" x1="167.67" y1="111.77" x2="167.67" y2="211.02"/><line class="cls-3" x1="13.18" y1="210.52" x2="167.17" y2="210.52"/><path class="cls-4" d="M752.83,187.58h-5.28V178.3h5.28v1.39h-3.61v2.36h3.37v1.4h-3.37v2.73h3.61Zm5.58-7.18a2.66,2.66,0,0,1,1.85.61,2.56,2.56,0,0,1,.68,2v4.59H759.3v-4.26c0-1.06-.44-1.59-1.3-1.59a1.43,1.43,0,0,0-1.35.62,3.5,3.5,0,0,0-.37,1.78v3.45h-1.64v-7.05h1.27l.23.93h.09a2,2,0,0,1,.92-.8A3.19,3.19,0,0,1,758.41,180.4Zm7.3,6a3.81,3.81,0,0,0,.59-.05l.54-.15v1.22a2.69,2.69,0,0,1-.67.2,4.14,4.14,0,0,1-.87.09,2.75,2.75,0,0,1-1.09-.2,1.56,1.56,0,0,1-.78-.7,2.78,2.78,0,0,1-.29-1.38v-3.66h-.95v-.72l1-.57.52-1.49h1v1.54h2v1.24h-2v3.65a.87.87,0,0,0,.93,1Zm6.25-6,.36,0a1.54,1.54,0,0,1,.35.05l-.14,1.52-.31,0a1.94,1.94,0,0,0-.33,0,2.15,2.15,0,0,0-1,.22,1.68,1.68,0,0,0-.74.66,2,2,0,0,0-.28,1.12v3.65h-1.63v-7.05h1.26l.23,1.23h.08a2.79,2.79,0,0,1,.86-.95A2,2,0,0,1,772,180.4Zm4.57,0a3.12,3.12,0,0,1,2.07.6,2.28,2.28,0,0,1,.72,1.85v4.73h-1.16l-.33-1h-.05a3,3,0,0,1-1,.85,3.11,3.11,0,0,1-1.38.26,2.35,2.35,0,0,1-1.57-.53,2.06,2.06,0,0,1-.63-1.65,1.86,1.86,0,0,1,.8-1.64,4.59,4.59,0,0,1,2.43-.61l1.22,0v-.35a1.2,1.2,0,0,0-.33-.95,1.27,1.27,0,0,0-.9-.3,3.52,3.52,0,0,0-1,.15c-.32.11-.64.23-1,.37L774,181a5.81,5.81,0,0,1,1.18-.44A5.9,5.9,0,0,1,776.53,180.4Zm.3,3.88a2.56,2.56,0,0,0-1.49.37,1.08,1.08,0,0,0-.42.89.87.87,0,0,0,.29.73,1.33,1.33,0,0,0,.78.21,1.86,1.86,0,0,0,1.21-.41,1.5,1.5,0,0,0,.49-1.22v-.6Zm8.31-3.88A2.63,2.63,0,0,1,787,181a2.56,2.56,0,0,1,.68,2v4.59H786v-4.26c0-1.06-.43-1.59-1.3-1.59a1.43,1.43,0,0,0-1.35.62,3.61,3.61,0,0,0-.36,1.78v3.45h-1.64v-7.05h1.26l.23.93H783a2,2,0,0,1,.93-.8A3.19,3.19,0,0,1,785.14,180.4Zm7.41,7.31a3.23,3.23,0,0,1-2.39-.87,3.75,3.75,0,0,1-.87-2.74,4.44,4.44,0,0,1,.43-2.11,2.75,2.75,0,0,1,1.21-1.2,3.82,3.82,0,0,1,1.75-.39,5.28,5.28,0,0,1,1.19.13,4.43,4.43,0,0,1,.88.32l-.48,1.28c-.27-.1-.54-.19-.8-.26a2.74,2.74,0,0,0-.79-.11c-1.14,0-1.71.77-1.71,2.32a2.82,2.82,0,0,0,.43,1.71,1.49,1.49,0,0,0,1.26.57,3.3,3.3,0,0,0,1-.15,3.75,3.75,0,0,0,.87-.39v1.42a3.3,3.3,0,0,1-.87.35A4.61,4.61,0,0,1,792.55,187.71Zm6.5-7.31a3,3,0,0,1,2.24.85,3.22,3.22,0,0,1,.83,2.35v.83h-4.65a2.2,2.2,0,0,0,.53,1.5,1.87,1.87,0,0,0,1.41.52,5.13,5.13,0,0,0,1.22-.13,8.45,8.45,0,0,0,1.12-.4v1.31a5.27,5.27,0,0,1-1.08.36,6.53,6.53,0,0,1-1.34.12,4.18,4.18,0,0,1-1.84-.39,3,3,0,0,1-1.24-1.21,4.05,4.05,0,0,1-.45-2,3.87,3.87,0,0,1,.9-2.76A3.1,3.1,0,0,1,799.05,180.4Zm0,1.21A1.43,1.43,0,0,0,798,182a2,2,0,0,0-.47,1.25h3a2,2,0,0,0-.38-1.2A1.27,1.27,0,0,0,799.05,181.61Zm8.75-3.31-3.45,9.28h-1.52l3.45-9.28Zm6.59,9.28h-5.28V178.3h5.28v1.39h-3.62v2.36h3.38v1.4h-3.38v2.73h3.62Zm3.33-3.6-2.32-3.45h1.86l1.53,2.4,1.53-2.4h1.86L819.83,184l2.47,3.6h-1.86L818.79,185l-1.65,2.56h-1.86Zm6.58-6.16a1,1,0,0,1,.63.19.72.72,0,0,1,.28.67.75.75,0,0,1-.28.67,1,1,0,0,1-.63.2,1.07,1.07,0,0,1-.65-.2.76.76,0,0,1-.26-.67.74.74,0,0,1,.26-.67A1.06,1.06,0,0,1,824.3,177.82Zm.82,2.71v7.05h-1.64v-7.05Zm4.82,5.87a3.92,3.92,0,0,0,.59-.05l.54-.15v1.22a2.83,2.83,0,0,1-.67.2,4.17,4.17,0,0,1-.88.09,2.75,2.75,0,0,1-1.09-.2,1.56,1.56,0,0,1-.78-.7,2.79,2.79,0,0,1-.28-1.38v-3.66h-1v-.72l1-.57L828,179h1v1.54h2v1.24h-2v3.65a.87.87,0,0,0,.94,1Z" transform="translate(-512.5 -159)"/><path class="cls-4" d="M537.88,281.36a4.39,4.39,0,0,1,2.7.68,2.41,2.41,0,0,1,.89,2,2.45,2.45,0,0,1-.26,1.16,2.58,2.58,0,0,1-.65.81,4.18,4.18,0,0,1-.87.5l2.66,4.09h-1.87L538.26,287H536.9v3.67h-1.66v-9.29Zm-.11,1.39h-.87v2.86h.93a2.4,2.4,0,0,0,1.48-.36,1.34,1.34,0,0,0,.47-1.1,1.16,1.16,0,0,0-.5-1.07A2.7,2.7,0,0,0,537.77,282.75Zm8.55.72a3,3,0,0,1,2.24.84,3.25,3.25,0,0,1,.83,2.36v.83h-4.65a2.11,2.11,0,0,0,.53,1.49,1.86,1.86,0,0,0,1.4.52,5.07,5.07,0,0,0,1.22-.13A6.56,6.56,0,0,0,549,289v1.31a4.45,4.45,0,0,1-1.08.37,6.49,6.49,0,0,1-1.33.11,4,4,0,0,1-1.84-.39,3,3,0,0,1-1.25-1.2,4.21,4.21,0,0,1-.44-2,3.84,3.84,0,0,1,.9-2.75A3.1,3.1,0,0,1,546.32,283.47Zm0,1.21a1.43,1.43,0,0,0-1.08.43,2,2,0,0,0-.47,1.24h3a1.9,1.9,0,0,0-.37-1.19A1.29,1.29,0,0,0,546.32,284.68Zm7.57,6.09a3.2,3.2,0,0,1-2.39-.87,3.74,3.74,0,0,1-.87-2.74,4.58,4.58,0,0,1,.42-2.11,2.78,2.78,0,0,1,1.21-1.19,3.83,3.83,0,0,1,1.76-.39,4.68,4.68,0,0,1,1.18.13,4.83,4.83,0,0,1,.89.31l-.48,1.29a6.34,6.34,0,0,0-.81-.26,2.74,2.74,0,0,0-.78-.12c-1.14,0-1.72.78-1.72,2.33a2.86,2.86,0,0,0,.43,1.7,1.51,1.51,0,0,0,1.26.57,3.31,3.31,0,0,0,1-.14,4.27,4.27,0,0,0,.87-.39v1.42a3.37,3.37,0,0,1-.87.35A4.58,4.58,0,0,1,553.89,290.77Zm6.5-7.3a3,3,0,0,1,2.23.84,3.21,3.21,0,0,1,.84,2.36v.83H558.8a2.16,2.16,0,0,0,.54,1.49,1.83,1.83,0,0,0,1.4.52,5.07,5.07,0,0,0,1.22-.13,6.56,6.56,0,0,0,1.12-.4v1.31a4.76,4.76,0,0,1-1.08.37,6.53,6.53,0,0,1-1.34.11,4,4,0,0,1-1.83-.39,2.89,2.89,0,0,1-1.25-1.2,4.21,4.21,0,0,1-.44-2,3.84,3.84,0,0,1,.9-2.75A3.08,3.08,0,0,1,560.39,283.47Zm0,1.21a1.43,1.43,0,0,0-1.08.43,2,2,0,0,0-.47,1.24h3a1.9,1.9,0,0,0-.38-1.19A1.27,1.27,0,0,0,560.39,284.68Zm8.42-1.21a2.44,2.44,0,0,1,2,.92,5.22,5.22,0,0,1,0,5.46,2.76,2.76,0,0,1-3.27.64,2.61,2.61,0,0,1-.76-.66h-.11c0,.16.05.34.07.54s0,.37,0,.53v2.86h-1.64V283.6h1.32l.24.94h.08a2.47,2.47,0,0,1,.78-.76A2.36,2.36,0,0,1,568.81,283.47Zm-.46,1.32a1.41,1.41,0,0,0-1.24.53,2.93,2.93,0,0,0-.36,1.57v.21a3.74,3.74,0,0,0,.33,1.74,1.38,1.38,0,0,0,1.29.6,1.21,1.21,0,0,0,1.13-.63,3.39,3.39,0,0,0,.38-1.73,3.18,3.18,0,0,0-.38-1.69A1.25,1.25,0,0,0,568.35,284.79Zm7.63,4.67a2.84,2.84,0,0,0,.58,0c.2,0,.38-.09.55-.14v1.22a3,3,0,0,1-.68.19,4.14,4.14,0,0,1-.87.09,2.94,2.94,0,0,1-1.09-.19,1.6,1.6,0,0,1-.78-.7,2.78,2.78,0,0,1-.29-1.38v-3.67h-.95v-.71l1-.57.52-1.5h1v1.55h2v1.23h-2v3.66a.86.86,0,0,0,.94,1Zm3.37-8.58a1,1,0,0,1,.63.2.72.72,0,0,1,.28.66.77.77,0,0,1-.28.68,1,1,0,0,1-.63.19,1.08,1.08,0,0,1-.65-.19.78.78,0,0,1-.26-.68.73.73,0,0,1,.26-.66A1.09,1.09,0,0,1,579.35,280.88Zm.82,2.72v7h-1.64v-7Zm8.38,3.51a3.81,3.81,0,0,1-.91,2.72,3.26,3.26,0,0,1-2.47.94,3.44,3.44,0,0,1-1.71-.42,3.05,3.05,0,0,1-1.19-1.25,4.33,4.33,0,0,1-.43-2,3.72,3.72,0,0,1,.9-2.69,3.28,3.28,0,0,1,2.47-.95,3.39,3.39,0,0,1,1.73.43,2.92,2.92,0,0,1,1.18,1.23A4.14,4.14,0,0,1,588.55,287.11Zm-5,0a3.24,3.24,0,0,0,.39,1.73,1.45,1.45,0,0,0,1.29.61,1.4,1.4,0,0,0,1.27-.61,3.14,3.14,0,0,0,.41-1.73,3.06,3.06,0,0,0-.41-1.72,1.67,1.67,0,0,0-2.56,0A3.15,3.15,0,0,0,583.52,287.11Zm10.5-3.64a2.6,2.6,0,0,1,1.84.61,2.56,2.56,0,0,1,.68,2v4.59H594.9v-4.27c0-1.06-.43-1.59-1.3-1.59a1.42,1.42,0,0,0-1.35.63,3.5,3.5,0,0,0-.37,1.78v3.45h-1.64v-7h1.27l.23.92h.09a2,2,0,0,1,.92-.79A3.21,3.21,0,0,1,594,283.47Z" transform="translate(-512.5 -159)"/><path class="cls-4" d="M543.62,384.61l-2.41,9.28h-1.83l-1.47-5.33c0-.17-.11-.39-.17-.66s-.12-.55-.17-.81-.08-.45-.1-.57c0,.12-.05.31-.11.57s-.09.52-.16.79-.12.51-.17.71l-1.43,5.3h-1.85l-2.39-9.28H533l1.28,5.29c.06.22.11.48.17.77s.11.57.17.85.09.52.11.73c0-.21.07-.47.12-.75s.11-.57.17-.83.11-.52.17-.71l1.45-5.35h1.61l1.49,5.37c.06.19.12.43.18.71s.12.56.17.83.09.52.12.73c0-.21.06-.46.1-.74s.11-.56.17-.84.12-.55.18-.77l1.27-5.29Zm3.67,2.1a3.12,3.12,0,0,1,2.07.6,2.3,2.3,0,0,1,.71,1.85v4.73h-1.15l-.33-1h-.05a2.55,2.55,0,0,1-2.34,1.1,2.35,2.35,0,0,1-1.57-.53,2.06,2.06,0,0,1-.63-1.65,1.86,1.86,0,0,1,.8-1.64,4.59,4.59,0,0,1,2.43-.61l1.22,0v-.35a1.2,1.2,0,0,0-.33-.95,1.28,1.28,0,0,0-.91-.3,3.2,3.2,0,0,0-1,.16,9.36,9.36,0,0,0-1,.36l-.53-1.14a5.07,5.07,0,0,1,1.19-.45A5.9,5.9,0,0,1,547.29,386.71Zm.3,3.88a2.56,2.56,0,0,0-1.49.37,1.08,1.08,0,0,0-.42.89.84.84,0,0,0,.29.73,1.39,1.39,0,0,0,.78.21,1.84,1.84,0,0,0,1.2-.41,1.5,1.5,0,0,0,.5-1.22v-.6Zm5.36-6.46a1,1,0,0,1,.63.19.74.74,0,0,1,.28.66.79.79,0,0,1-.28.68,1,1,0,0,1-.63.2,1.07,1.07,0,0,1-.65-.2A.78.78,0,0,1,552,385a.73.73,0,0,1,.26-.66A1.06,1.06,0,0,1,553,384.13Zm.81,2.71v7.05h-1.63v-7.05Zm4.83,5.87a2.78,2.78,0,0,0,.58-.06c.2,0,.38-.09.55-.14v1.22a2.78,2.78,0,0,1-.68.2,4,4,0,0,1-.87.09,3.15,3.15,0,0,1-1.09-.19,1.62,1.62,0,0,1-.78-.71,2.79,2.79,0,0,1-.28-1.38v-3.66h-.95v-.72l1-.57.52-1.49h1v1.54h2v1.24h-2v3.65a.87.87,0,0,0,.94,1Zm3.37-8.58a1.05,1.05,0,0,1,.64.19.74.74,0,0,1,.27.66.79.79,0,0,1-.27.68,1.06,1.06,0,0,1-.64.2,1.09,1.09,0,0,1-.65-.2.81.81,0,0,1-.26-.68.76.76,0,0,1,.26-.66A1.08,1.08,0,0,1,562,384.13Zm.82,2.71v7.05h-1.64v-7.05Zm5.86-.13a2.62,2.62,0,0,1,1.85.62,2.52,2.52,0,0,1,.67,2v4.59h-1.63v-4.26c0-1.06-.44-1.59-1.3-1.59a1.46,1.46,0,0,0-1.36.62,3.63,3.63,0,0,0-.36,1.79v3.44h-1.64v-7.05h1.26l.24.93h.09a1.94,1.94,0,0,1,.92-.8A3.19,3.19,0,0,1,568.64,386.71Zm6.94,0a2.44,2.44,0,0,1,2.09,1h.07l.15-.91h1.37v7.1a2.94,2.94,0,0,1-.86,2.29,3.63,3.63,0,0,1-2.54.78,8.65,8.65,0,0,1-1.39-.1,4.84,4.84,0,0,1-1.2-.33v-1.35a6.51,6.51,0,0,0,2.7.54,1.58,1.58,0,0,0,1.22-.45,1.79,1.79,0,0,0,.43-1.3v-.18c0-.13,0-.28,0-.46a3.33,3.33,0,0,1,0-.41h0a2.22,2.22,0,0,1-.9.8,2.62,2.62,0,0,1-1.18.25,2.4,2.4,0,0,1-2-1,4.4,4.4,0,0,1-.72-2.68,4.45,4.45,0,0,1,.72-2.69A2.45,2.45,0,0,1,575.58,386.71Zm.43,1.34c-1,0-1.54.79-1.54,2.36s.52,2.31,1.56,2.31a1.59,1.59,0,0,0,1.27-.47,2.51,2.51,0,0,0,.41-1.61v-.25a3,3,0,0,0-.41-1.79A1.49,1.49,0,0,0,576,388.05Zm12.41-1.34.36,0a1.25,1.25,0,0,1,.36,0L589,388.3l-.31,0-.32,0a2.17,2.17,0,0,0-1,.23,1.67,1.67,0,0,0-.74.66,2.11,2.11,0,0,0-.27,1.12v3.65h-1.64v-7.05H586l.23,1.23h.08a2.89,2.89,0,0,1,.86-.95A2,2,0,0,1,588.42,386.71Zm8.06,3.64a3.84,3.84,0,0,1-.91,2.72,3.28,3.28,0,0,1-2.47.95,3.41,3.41,0,0,1-1.72-.43,3,3,0,0,1-1.18-1.25,4.18,4.18,0,0,1-.43-2,3.74,3.74,0,0,1,.9-2.69,3.26,3.26,0,0,1,2.47-1,3.52,3.52,0,0,1,1.73.43,3,3,0,0,1,1.18,1.24A4.1,4.1,0,0,1,596.48,390.35Zm-5,0a3.21,3.21,0,0,0,.39,1.73,1.42,1.42,0,0,0,1.28.61,1.4,1.4,0,0,0,1.28-.61,3.12,3.12,0,0,0,.4-1.73,3,3,0,0,0-.4-1.71,1.67,1.67,0,0,0-2.56,0A3.14,3.14,0,0,0,591.45,390.35Zm13,0a3.79,3.79,0,0,1-.91,2.72,3.26,3.26,0,0,1-2.47.95,3.34,3.34,0,0,1-1.71-.43,3,3,0,0,1-1.19-1.25,4.3,4.3,0,0,1-.42-2,3.73,3.73,0,0,1,.89-2.69,3.28,3.28,0,0,1,2.47-1,3.49,3.49,0,0,1,1.73.43,2.91,2.91,0,0,1,1.19,1.24A4.22,4.22,0,0,1,604.46,390.35Zm-5,0a3.21,3.21,0,0,0,.39,1.73,1.43,1.43,0,0,0,1.29.61,1.38,1.38,0,0,0,1.27-.61,3.11,3.11,0,0,0,.41-1.73,3,3,0,0,0-.41-1.71,1.4,1.4,0,0,0-1.28-.6,1.44,1.44,0,0,0-1.28.6A3.14,3.14,0,0,0,599.43,390.35Zm14.8-3.64a2.37,2.37,0,0,1,1.79.62,2.67,2.67,0,0,1,.62,2v4.59H615v-4.28c0-1.05-.4-1.57-1.2-1.57a1.35,1.35,0,0,0-1.22.56,3,3,0,0,0-.37,1.62v3.67h-1.63v-4.28c0-1.05-.41-1.57-1.21-1.57a1.3,1.3,0,0,0-1.24.62,3.91,3.91,0,0,0-.33,1.79v3.44h-1.64v-7.05h1.26l.23.93h.09a1.87,1.87,0,0,1,.87-.8,2.93,2.93,0,0,1,1.19-.26,2.75,2.75,0,0,1,1.32.28,1.66,1.66,0,0,1,.83.82h.13A2,2,0,0,1,613,387,3.13,3.13,0,0,1,614.23,386.71Z" transform="translate(-512.5 -159)"/><path class="cls-4" d="M803.56,499.25H801.9v-7.87h-2.67V490h7v1.41h-2.66Zm9.31-3.53a3.81,3.81,0,0,1-.91,2.71,3.24,3.24,0,0,1-2.47.95,3.38,3.38,0,0,1-1.72-.43,3,3,0,0,1-1.18-1.24,4.21,4.21,0,0,1-.43-2,3.72,3.72,0,0,1,.9-2.69,3.23,3.23,0,0,1,2.47-.95,3.42,3.42,0,0,1,1.73.43,2.92,2.92,0,0,1,1.18,1.23A4.26,4.26,0,0,1,812.87,495.72Zm-5,0a3.24,3.24,0,0,0,.39,1.73,1.65,1.65,0,0,0,2.56,0,3.14,3.14,0,0,0,.4-1.73,3.06,3.06,0,0,0-.4-1.72,1.67,1.67,0,0,0-2.56,0A3.15,3.15,0,0,0,807.84,495.72Zm7.54-6.23a1.05,1.05,0,0,1,.64.19,1,1,0,0,1,0,1.34,1.06,1.06,0,0,1-.64.2,1.09,1.09,0,0,1-.65-.2,1,1,0,0,1,0-1.34A1.08,1.08,0,0,1,815.38,489.49Zm.82,2.72v7h-1.64v-7Zm3.73,7h-1.64v-9.88h1.64Zm4.93-7.17a3,3,0,0,1,2.23.84,3.19,3.19,0,0,1,.84,2.35v.84h-4.66a2.16,2.16,0,0,0,.54,1.49,1.83,1.83,0,0,0,1.4.52,5.07,5.07,0,0,0,1.22-.13,6.56,6.56,0,0,0,1.12-.4v1.31a4.76,4.76,0,0,1-1.08.37,7.31,7.31,0,0,1-1.34.11,4.17,4.17,0,0,1-1.83-.39,2.92,2.92,0,0,1-1.25-1.21,4.14,4.14,0,0,1-.44-2,3.84,3.84,0,0,1,.9-2.75A3,3,0,0,1,824.86,492.08Zm0,1.21a1.46,1.46,0,0,0-1.08.42,2,2,0,0,0-.47,1.25h3a1.9,1.9,0,0,0-.38-1.19A1.27,1.27,0,0,0,824.86,493.29Zm7.45,4.78a3.68,3.68,0,0,0,.58-.05,5.48,5.48,0,0,0,.55-.14v1.22a3.37,3.37,0,0,1-.68.19,4,4,0,0,1-.87.09,2.94,2.94,0,0,1-1.09-.19,1.6,1.6,0,0,1-.78-.7,2.78,2.78,0,0,1-.29-1.38v-3.67h-.94v-.71l1-.58.52-1.49h1v1.55h2v1.23h-2v3.66a.86.86,0,0,0,.94,1Zm7.35-.86a1.91,1.91,0,0,1-.77,1.63,3.7,3.7,0,0,1-2.17.54,6.6,6.6,0,0,1-1.27-.1,4.67,4.67,0,0,1-1-.33v-1.39a6.23,6.23,0,0,0,1.15.42,4.74,4.74,0,0,0,1.19.17,1.76,1.76,0,0,0,1-.21.65.65,0,0,0,.29-.56.55.55,0,0,0-.11-.36,1.39,1.39,0,0,0-.47-.37,10.13,10.13,0,0,0-1-.48,7.11,7.11,0,0,1-1.13-.53,2.05,2.05,0,0,1-.68-.66,1.9,1.9,0,0,1-.22-1,1.58,1.58,0,0,1,.74-1.43,3.59,3.59,0,0,1,2-.49,5.72,5.72,0,0,1,2.39.52l-.52,1.21q-.49-.21-1-.36a3.43,3.43,0,0,0-1-.14c-.72,0-1.08.21-1.08.61a.55.55,0,0,0,.13.38,2.14,2.14,0,0,0,.48.34c.24.11.57.25,1,.41a8.42,8.42,0,0,1,1.08.52,2,2,0,0,1,.7.65A1.77,1.77,0,0,1,839.66,497.21Z" transform="translate(-512.5 -159)"/></svg>