<svg width="16" height="10" viewBox="0 0 16 10" fill="none" xmlns="http://www.w3.org/2000/svg">
<path d="M2.50581 9.44343H0.501162C0.224521 9.44343 0 9.1201 0 8.72172C0 8.32333 0.224521 8 0.501162 8H2.50581C2.78245 8 3.00697 8.32333 3.00697 8.72172C3.00697 9.1201 2.78245 9.44343 2.50581 9.44343Z" fill="#000014"/>
<path d="M11.166 9.44343H9.16132C8.88468 9.44343 8.66016 9.1201 8.66016 8.72172C8.66016 8.32333 8.88468 8 9.16132 8H11.166C11.4426 8 11.6671 8.32333 11.6671 8.72172C11.6671 9.1201 11.4426 9.44343 11.166 9.44343Z" fill="#000014"/>
<path d="M15.498 9.44343H13.4933C13.2167 9.44343 12.9922 9.1201 12.9922 8.72172C12.9922 8.32333 13.2167 8 13.4933 8H15.498C15.7746 8 15.9992 8.32333 15.9992 8.72172C15.9992 9.1201 15.7746 9.44343 15.498 9.44343Z" fill="#000014"/>
<path d="M6.83784 9.44343H4.83319C4.55655 9.44343 4.33203 9.1201 4.33203 8.72172C4.33203 8.32333 4.55655 8 4.83319 8H6.83784C7.11448 8 7.33901 8.32333 7.33901 8.72172C7.33901 9.1201 7.11448 9.44343 6.83784 9.44343Z" fill="#000014"/>
<path d="M5.66644 6.22289C5.49578 6.22289 5.32511 6.158 5.19533 6.02733C4.93489 5.76689 4.93489 5.34467 5.19533 5.08422L10.0842 0.195333C10.3447 -0.0651111 10.7669 -0.0651111 11.0273 0.195333C11.2878 0.455778 11.2878 0.878 11.0273 1.13844L6.13844 6.02733C6.00778 6.158 5.83711 6.22289 5.66644 6.22289Z" fill="#000014"/>
<path d="M10.5553 6.22289C10.3847 6.22289 10.214 6.158 10.0842 6.02733L5.19533 1.13844C4.93489 0.878 4.93489 0.455778 5.19533 0.195333C5.45578 -0.0651111 5.878 -0.0651111 6.13844 0.195333L11.0273 5.08422C11.2878 5.34467 11.2878 5.76689 11.0273 6.02733C10.8967 6.158 10.726 6.22289 10.5553 6.22289Z" fill="#000014"/>
</svg>
