<svg width="20" height="21" viewBox="0 0 20 21" fill="none" xmlns="http://www.w3.org/2000/svg">
<g clip-path="url(#clip0)">
<path d="M18.75 5.5H1.25C0.560833 5.5 0 4.93917 0 4.25V1.75C0 1.06083 0.560833 0.5 1.25 0.5H18.75C19.4392 0.5 20 1.06083 20 1.75V4.25C20 4.93917 19.4392 5.5 18.75 5.5ZM1.25 1.33333C1.02083 1.33333 0.833333 1.52 0.833333 1.75V4.25C0.833333 4.48 1.02083 4.66667 1.25 4.66667H18.75C18.9792 4.66667 19.1667 4.48 19.1667 4.25V1.75C19.1667 1.52 18.9792 1.33333 18.75 1.33333H1.25Z" fill="#000149"/>
<path d="M18.75 13H1.25C0.560833 13 0 12.4392 0 11.75V9.25C0 8.56083 0.560833 8 1.25 8H18.75C19.4392 8 20 8.56083 20 9.25V11.75C20 12.4392 19.4392 13 18.75 13ZM1.25 8.83333C1.02083 8.83333 0.833333 9.02 0.833333 9.25V11.75C0.833333 11.98 1.02083 12.1667 1.25 12.1667H18.75C18.9792 12.1667 19.1667 11.98 19.1667 11.75V9.25C19.1667 9.02 18.9792 8.83333 18.75 8.83333H1.25Z" fill="#000149"/>
<path d="M18.75 20.5H1.25C0.560833 20.5 0 19.9392 0 19.25V16.75C0 16.0608 0.560833 15.5 1.25 15.5H18.75C19.4392 15.5 20 16.0608 20 16.75V19.25C20 19.9392 19.4392 20.5 18.75 20.5ZM1.25 16.3333C1.02083 16.3333 0.833333 16.52 0.833333 16.75V19.25C0.833333 19.48 1.02083 19.6667 1.25 19.6667H18.75C18.9792 19.6667 19.1667 19.48 19.1667 19.25V16.75C19.1667 16.52 18.9792 16.3333 18.75 16.3333H1.25Z" fill="#000149"/>
</g>
<defs>
<clipPath id="clip0">
<rect width="20" height="20" fill="white" transform="translate(0 0.5)"/>
</clipPath>
</defs>
</svg>
