<svg width="20" height="21" viewBox="0 0 20 21" fill="none" xmlns="http://www.w3.org/2000/svg">
<g clip-path="url(#clip0)">
<path d="M19.1667 0.5H0.833333C0.373333 0.5 0 0.873333 0 1.33333V4.66667C0 5.12667 0.373333 5.5 0.833333 5.5H19.1667C19.6267 5.5 20 5.12667 20 4.66667V1.33333C20 0.873333 19.6267 0.5 19.1667 0.5Z" fill="#FAFAFA"/>
<path d="M19.1667 8H0.833333C0.373333 8 0 8.37333 0 8.83333V12.1667C0 12.6267 0.373333 13 0.833333 13H19.1667C19.6267 13 20 12.6267 20 12.1667V8.83333C20 8.37333 19.6267 8 19.1667 8Z" fill="#FAFAFA"/>
<path d="M19.1667 15.5H0.833333C0.373333 15.5 0 15.8733 0 16.3333V19.6667C0 20.1267 0.373333 20.5 0.833333 20.5H19.1667C19.6267 20.5 20 20.1267 20 19.6667V16.3333C20 15.8733 19.6267 15.5 19.1667 15.5Z" fill="#FAFAFA"/>
</g>
<defs>
<clipPath id="clip0">
<rect width="20" height="20" fill="white" transform="translate(0 0.5)"/>
</clipPath>
</defs>
</svg>
